<?xml version="1.0" encoding="utf-8"?>
<!-- Generator: Adobe Illustrator 25.2.3, SVG Export Plug-In . SVG Version: 6.00 Build 0)  -->
<svg version="1.1" id="Layer_1" xmlns="http://www.w3.org/2000/svg" xmlns:xlink="http://www.w3.org/1999/xlink" x="0px" y="0px"
	 viewBox="0 0 64 64" style="enable-background:new 0 0 64 64;" xml:space="preserve" preserveAspectRatio="none">
<style type="text/css">
	.st0{clip-path:url(#SVGID_2_);fill:#B1B3B4;stroke:#B1B3B4;stroke-miterlimit:10;}
	.st1{clip-path:url(#SVGID_4_);fill:#B1B3B4;stroke:#B1B3B4;stroke-miterlimit:10;}
	.st2{fill:#B1B3B4;stroke:#B1B3B4;stroke-miterlimit:10;}
	.st3{fill:none;stroke:#B1B3B4;stroke-miterlimit:10;}
</style>
<g>
	<g>
		<g id="_x3C_Mirror_Repeat_x3E__3_">
			<g>
				<defs>
					<rect id="SVGID_1_" x="11.12" y="27.93" width="21.57" height="15.32"/>
				</defs>
				<clipPath id="SVGID_2_">
					<use xlink:href="#SVGID_1_"  style="overflow:visible;"/>
				</clipPath>
				<path class="st0" d="M11.62,35.59c0-4.45,3.89-7.16,8.21-7.16c5.32,0,12.16,6.83,12.16,6.83s-7.04,7.49-12.08,7.49
					S11.62,40.04,11.62,35.59z"/>
			</g>
		</g>
		<g id="_x3C_Mirror_Repeat_x3E__2_">
			<g>
				<defs>
					<rect id="SVGID_3_" x="31.3" y="27.93" width="21.57" height="15.32"/>
				</defs>
				<clipPath id="SVGID_4_">
					<use xlink:href="#SVGID_3_"  style="overflow:visible;"/>
				</clipPath>
				<path class="st1" d="M52.38,35.59c0-4.45-3.89-7.16-8.21-7.16c-5.32,0-12.16,6.83-12.16,6.83s7.04,7.49,12.08,7.49
					S52.38,40.04,52.38,35.59z"/>
			</g>
		</g>
	</g>
	<line class="st2" x1="32" y1="17.19" x2="32" y2="35"/>
</g>
<circle class="st3" cx="32" cy="32" r="28.18"/>
</svg>
