<svg xmlns="http://www.w3.org/2000/svg" xmlns:xlink="http://www.w3.org/1999/xlink" viewBox="0 0 64 64" style="enable-background:new 0 0 64 64" xml:space="preserve" preserveAspectRatio="none"><defs><path id="a" d="M11.12 27.93h21.57v15.32H11.12z"/></defs><clipPath id="b"><use xlink:href="#a" style="overflow:visible"/></clipPath><path d="M11.62 35.59c0-4.45 3.89-7.16 8.21-7.16 5.32 0 12.16 6.83 12.16 6.83s-7.04 7.49-12.08 7.49-8.29-2.71-8.29-7.16z" style="clip-path:url(#b);fill:#b1b3b4;stroke:#b1b3b4;stroke-miterlimit:10"/><g><defs><path id="c" d="M31.3 27.93h21.57v15.32H31.3z"/></defs><clipPath id="d"><use xlink:href="#c" style="overflow:visible"/></clipPath><path d="M52.38 35.59c0-4.45-3.89-7.16-8.21-7.16-5.32 0-12.16 6.83-12.16 6.83s7.04 7.49 12.08 7.49 8.29-2.71 8.29-7.16z" style="clip-path:url(#d);fill:#b1b3b4;stroke:#b1b3b4;stroke-miterlimit:10"/></g><path style="fill:#b1b3b4;stroke:#b1b3b4;stroke-miterlimit:10" d="M32 17.19V35"/><circle cx="32" cy="32" r="28.18" style="fill:none;stroke:#b1b3b4;stroke-miterlimit:10"/></svg>