<svg xmlns="http://www.w3.org/2000/svg" xmlns:xlink="http://www.w3.org/1999/xlink" viewBox="0 0 128 256" style="enable-background:new 0 0 128 256" xml:space="preserve" preserveAspectRatio="none"><path d="M1.1 203.3v-150s13.9-21.8 63-21.8 63 19.3 63 19.3v152.5s-15.4 20.8-63 20.8-63-20.8-63-20.8z" style="fill:#b1b3b4;stroke:#b1b3b4;stroke-miterlimit:10"/><defs><path id="a" d="M46.6 200.7h21.6V216H46.6z"/></defs><clipPath id="b"><use xlink:href="#a" style="overflow:visible"/></clipPath><path d="M47.1 208.3c0-4.4 3.9-7.2 8.2-7.2 5.3 0 12.2 6.8 12.2 6.8s-7 7.5-12.1 7.5-8.3-2.6-8.3-7.1z" style="clip-path:url(#b);fill:#87888a;stroke:#87888a;stroke-miterlimit:10"/><g><defs><path id="c" d="M66.8 200.7h21.6V216H66.8z"/></defs><clipPath id="d"><use xlink:href="#c" style="overflow:visible"/></clipPath><path d="M87.9 208.3c0-4.4-3.9-7.2-8.2-7.2-5.3 0-12.2 6.8-12.2 6.8s7 7.5 12.1 7.5 8.3-2.6 8.3-7.1z" style="clip-path:url(#d);fill:#87888a;stroke:#87888a;stroke-miterlimit:10"/></g><path style="fill:none;stroke:#87888a;stroke-miterlimit:10" d="M67.5 189.9v17.9"/></svg>