<?xml version="1.0" encoding="utf-8"?>
<!-- Generator: Adobe Illustrator 25.2.3, SVG Export Plug-In . SVG Version: 6.00 Build 0)  -->
<svg version="1.1" id="Layer_1" xmlns="http://www.w3.org/2000/svg" xmlns:xlink="http://www.w3.org/1999/xlink" x="0px" y="0px"
	 viewBox="0 0 128 256" style="enable-background:new 0 0 128 256;" xml:space="preserve" preserveAspectRatio="none">
<style type="text/css">
	.st0{fill:#B1B3B4;stroke:#B1B3B4;stroke-miterlimit:10;}
	.st1{clip-path:url(#SVGID_2_);fill:#87888A;stroke:#87888A;stroke-miterlimit:10;}
	.st2{clip-path:url(#SVGID_4_);fill:#87888A;stroke:#87888A;stroke-miterlimit:10;}
	.st3{fill:none;stroke:#87888A;stroke-miterlimit:10;}
</style>
<path class="st0" d="M1.1,203.3v-150c0,0,13.9-21.8,63-21.8s63,19.3,63,19.3v152.5c0,0-15.4,20.8-63,20.8S1.1,203.3,1.1,203.3z"/>
<g>
	<g>
		<g id="_x3C_Mirror_Repeat_x3E__3_">
			<g>
				<g>
					<defs>
						<rect id="SVGID_1_" x="46.6" y="200.7" width="21.6" height="15.3"/>
					</defs>
					<clipPath id="SVGID_2_">
						<use xlink:href="#SVGID_1_"  style="overflow:visible;"/>
					</clipPath>
					<path class="st1" d="M47.1,208.3c0-4.4,3.9-7.2,8.2-7.2c5.3,0,12.2,6.8,12.2,6.8s-7,7.5-12.1,7.5S47.1,212.8,47.1,208.3z"/>
				</g>
			</g>
		</g>
		<g id="_x3C_Mirror_Repeat_x3E__2_">
			<g>
				<g>
					<defs>
						<rect id="SVGID_3_" x="66.8" y="200.7" width="21.6" height="15.3"/>
					</defs>
					<clipPath id="SVGID_4_">
						<use xlink:href="#SVGID_3_"  style="overflow:visible;"/>
					</clipPath>
					<path class="st2" d="M87.9,208.3c0-4.4-3.9-7.2-8.2-7.2c-5.3,0-12.2,6.8-12.2,6.8s7,7.5,12.1,7.5S87.9,212.8,87.9,208.3z"/>
				</g>
			</g>
		</g>
	</g>
	<line class="st3" x1="67.5" y1="189.9" x2="67.5" y2="207.8"/>
</g>
</svg>
